<svg xmlns="http://www.w3.org/2000/svg" width="17.902" height="16.402" viewBox="0 0 17.902 16.402"><g transform="translate(-342 -49.671)"><g transform="translate(339.996 47.166)"><path d="M81.469,81.834H70.8a2.2,2.2,0,0,0-4.171,0H64.967a.7.7,0,0,0,0,1.4h1.665a2.2,2.2,0,0,0,4.171,0H81.469a.7.7,0,1,0,0-1.4Zm-12.751,1.5a.8.8,0,1,1,.8-.8A.8.8,0,0,1,68.718,83.334Z" transform="translate(-62.263 -77.829)" fill="#fff"/><path d="M81.469,210.367H79.8a2.2,2.2,0,0,0-4.171,0H64.967a.7.7,0,1,0,0,1.4H75.633a2.2,2.2,0,0,0,4.171,0h1.665a.7.7,0,1,0,0-1.4Zm-3.75,1.5a.8.8,0,1,1,.8-.8A.8.8,0,0,1,77.718,211.867Z" transform="translate(-62.263 -200.361)" fill="#fff"/><path d="M81.469,338.9H73.8a2.2,2.2,0,0,0-4.171,0H64.967a.7.7,0,1,0,0,1.4h4.665a2.2,2.2,0,0,0,4.171,0h7.665a.7.7,0,1,0,0-1.4Zm-9.751,1.5a.8.8,0,1,1,.8-.8A.8.8,0,0,1,71.718,340.4Z" transform="translate(-62.263 -322.894)" fill="#fff"/></g></g></svg>