<svg xmlns="http://www.w3.org/2000/svg" width="19.881" height="18.976" viewBox="0 0 19.881 18.976"><g transform="translate(0.519 0.566)"><g transform="translate(0 0)"><g transform="translate(0 0)"><path d="M18.526,20.632l-8.454-7.7a.962.962,0,0,0-1.3,0l-8.454,7.7a.966.966,0,0,0,.651,1.68h1.35v7.718a.554.554,0,0,0,.554.554H7.505a.554.554,0,0,0,.554-.554V25.345h2.723v4.686a.554.554,0,0,0,.554.554h4.634a.554.554,0,0,0,.554-.554V22.313h1.351a.966.966,0,0,0,.651-1.68Z" transform="translate(0 -12.675)" fill="none" stroke="#000" stroke-width="1"/></g></g></g></svg>