<svg xmlns="http://www.w3.org/2000/svg" width="22.931" height="21.115" viewBox="0 0 22.931 21.115"><g transform="translate(-0.488 -0.5)"><g transform="translate(0.989 1)"><path d="M11.78,1C5.65,1,.995,5.08.995,10.109a6.763,6.763,0,0,0,2.852,5.8h0a8.218,8.218,0,0,1-.216,4.28.712.712,0,0,0,.917.875l5.582-1.977a12.262,12.262,0,0,0,1.719.132c6.131,0,11.07-4.08,11.07-9.109S17.911,1,11.78,1Z" transform="translate(-0.989 -1)" fill="none" stroke="#000" stroke-linecap="round" stroke-linejoin="round" stroke-width="1"/><path d="M14.935,34.156A12.488,12.488,0,0,1,11.35,32.87" transform="translate(-5.888 -16.07)" fill="none" stroke="#000" stroke-linecap="round" stroke-linejoin="round" stroke-width="1"/><circle cx="1.249" cy="1.249" r="1.249" transform="translate(4.998 8.171)"/><circle cx="1.249" cy="1.249" r="1.249" transform="translate(9.89 8.171)"/><circle cx="1.249" cy="1.249" r="1.249" transform="translate(14.782 8.171)"/></g></g></svg>