<svg xmlns="http://www.w3.org/2000/svg" width="18.973" height="18.973" viewBox="0 0 18.973 18.973"><g transform="translate(-5.67 -5.663)"><path d="M23.578,11.714a.72.72,0,0,0-.72.72v9.86a1.513,1.513,0,0,1-1.513,1.513H8.624a1.513,1.513,0,0,1-1.513-1.513V9.574A1.513,1.513,0,0,1,8.624,8.061h9.86a.72.72,0,0,0,0-1.441H8.624A2.958,2.958,0,0,0,5.67,9.574v12.72a2.958,2.958,0,0,0,2.954,2.954h12.72A2.958,2.958,0,0,0,24.3,22.294v-9.86A.72.72,0,0,0,23.578,11.714Z" transform="translate(0 -0.612)" fill="#fff"/><path d="M42.865,5.875a.72.72,0,0,0-1.019,0L34.7,13.025a.721.721,0,0,0,1.019,1.019l7.151-7.151a.72.72,0,0,0,0-1.019Z" transform="translate(-18.434 0)" fill="#fff"/></g></svg>