<svg xmlns="http://www.w3.org/2000/svg" width="22.778" height="21.969" viewBox="0 0 22.778 21.969"><g transform="translate(-2.996 -4.066)"><path d="M25.727,6.935a3.776,3.776,0,0,0-4.5-2.8,4.128,4.128,0,0,0-2.663,1.614c-.027.039-.051.079-.075.118l-5.459.185a.393.393,0,0,0-.263.114l-9.308,9.3A1.508,1.508,0,0,0,3,16.459a1.32,1.32,0,0,0,.393,1.005l8.158,8.177a1.308,1.308,0,0,0,.931.393,1.516,1.516,0,0,0,1.064-.452l9.308-9.308a.393.393,0,0,0,.114-.263l.161-5.067A3.691,3.691,0,0,0,25.727,6.935ZM12.989,25a.632.632,0,0,1-.888.075L3.936,16.907a.53.53,0,0,1-.149-.393.75.75,0,0,1,.224-.479l9.2-9.21,9.269-.31-.118,3.81H22.3a3.641,3.641,0,0,1-1.033.031,2.616,2.616,0,1,0-.786,1.85,2.588,2.588,0,0,0,.648-1.08,4.073,4.073,0,0,0,.534.039,3.927,3.927,0,0,0,.668-.055l-.145,4.713ZM18.025,8.643a3.535,3.535,0,0,0,2.357,2.317,1.791,1.791,0,0,1-.428.7,1.834,1.834,0,0,1-2.592-2.592,1.748,1.748,0,0,1,.664-.42Zm.786-.1a1.8,1.8,0,0,1,1.657,1.626A2.769,2.769,0,0,1,18.81,8.541Zm4.344,1.524.126-3.928a.393.393,0,0,0-.393-.393l-3.342.114A3.5,3.5,0,0,1,21.355,4.9a2.991,2.991,0,0,1,3.6,2.168A2.831,2.831,0,0,1,23.154,10.065Z" transform="translate(0 0)"/><path d="M25.286,30.823a.393.393,0,0,0-.554,0l-.393.393a1.253,1.253,0,0,0-.821-.33,1.178,1.178,0,0,0-.872.353,1.233,1.233,0,0,0,.02,1.744l.463.463a.479.479,0,0,1,.141.33.428.428,0,0,1-.122.3.452.452,0,0,1-.306.122.46.46,0,0,1-.326-.141l-.9-.88a.392.392,0,0,0-.554.554l.393.393-.393.393a.394.394,0,0,0,.558.558l.393-.393a1.233,1.233,0,0,0,.821.33h.02a1.229,1.229,0,0,0,.856-.353,1.2,1.2,0,0,0,.35-.876,1.265,1.265,0,0,0-.369-.868l-.467-.467a.448.448,0,0,1-.02-.632.46.46,0,0,1,.306-.122.487.487,0,0,1,.326.141l.884.884a.393.393,0,1,0,.558-.554l-.393-.393.393-.393a.393.393,0,0,0,.012-.558Z" transform="translate(-10.899 -16.179)"/><path d="M19.9,25.37a4.32,4.32,0,1,0,3.052,1.265A4.32,4.32,0,0,0,19.9,25.37Zm2.5,6.822a3.535,3.535,0,1,1,1.037-2.5A3.535,3.535,0,0,1,22.394,32.192Z" transform="translate(-7.637 -12.937)"/></g></svg>