<svg xmlns="http://www.w3.org/2000/svg" width="17.365" height="15.204" viewBox="0 0 17.365 15.204"><g transform="translate(-307 -51)"><g transform="translate(14 1)"><g transform="translate(171 50)"><path d="M139.19,11.086a.594.594,0,0,0-.84,0l-2.073,2.083V.594a.594.594,0,0,0-1.188,0V13.172l-2.073-2.084a.594.594,0,0,0-.842.838l3.088,3.1h0a.594.594,0,0,0,.841,0h0l3.088-3.1A.594.594,0,0,0,139.19,11.086Z" fill="#f7f7f7"/></g><g transform="translate(432.364 65.204) rotate(180)"><path d="M139.19,11.086a.594.594,0,0,0-.84,0l-2.073,2.083V.594a.594.594,0,0,0-1.188,0V13.172l-2.073-2.084a.594.594,0,0,0-.842.838l3.088,3.1h0a.594.594,0,0,0,.841,0h0l3.088-3.1A.594.594,0,0,0,139.19,11.086Z" fill="#f7f7f7"/></g></g></g></svg>